<?xml version="1.0" encoding="UTF-8"?>
<!DOCTYPE svg PUBLIC "-//W3C//DTD SVG 1.1//EN" "http://www.w3.org/Graphics/SVG/1.1/DTD/svg11.dtd">
<svg version="1.2" width="62.51mm" height="62.51mm" viewBox="7375 11725 6251 6251" preserveAspectRatio="xMidYMid" fill-rule="evenodd" stroke-width="28.222" stroke-linejoin="round" xmlns="http://www.w3.org/2000/svg" xmlns:ooo="http://xml.openoffice.org/svg/export" xmlns:xlink="http://www.w3.org/1999/xlink" xmlns:presentation="http://sun.com/xmlns/staroffice/presentation" xmlns:smil="http://www.w3.org/2001/SMIL20/" xmlns:anim="urn:oasis:names:tc:opendocument:xmlns:animation:1.0" xmlns:svg="urn:oasis:names:tc:opendocument:xmlns:svg-compatible:1.0" xml:space="preserve">
 <defs class="EmbeddedBulletChars">
  <g id="bullet-char-template-57356" transform="scale(0.00048828125,-0.00048828125)">
   <path d="M 580,1141 L 1163,571 580,0 -4,571 580,1141 Z"/>
  </g>
  <g id="bullet-char-template-57354" transform="scale(0.00048828125,-0.00048828125)">
   <path d="M 8,1128 L 1137,1128 1137,0 8,0 8,1128 Z"/>
  </g>
  <g id="bullet-char-template-10146" transform="scale(0.00048828125,-0.00048828125)">
   <path d="M 174,0 L 602,739 174,1481 1456,739 174,0 Z M 1358,739 L 309,1346 659,739 1358,739 Z"/>
  </g>
  <g id="bullet-char-template-10132" transform="scale(0.00048828125,-0.00048828125)">
   <path d="M 2015,739 L 1276,0 717,0 1260,543 174,543 174,936 1260,936 717,1481 1274,1481 2015,739 Z"/>
  </g>
  <g id="bullet-char-template-10007" transform="scale(0.00048828125,-0.00048828125)">
   <path d="M 0,-2 C -7,14 -16,27 -25,37 L 356,567 C 262,823 215,952 215,954 215,979 228,992 255,992 264,992 276,990 289,987 310,991 331,999 354,1012 L 381,999 492,748 772,1049 836,1024 860,1049 C 881,1039 901,1025 922,1006 886,937 835,863 770,784 769,783 710,716 594,584 L 774,223 C 774,196 753,168 711,139 L 727,119 C 717,90 699,76 672,76 641,76 570,178 457,381 L 164,-76 C 142,-110 111,-127 72,-127 30,-127 9,-110 8,-76 1,-67 -2,-52 -2,-32 -2,-23 -1,-13 0,-2 Z"/>
  </g>
  <g id="bullet-char-template-10004" transform="scale(0.00048828125,-0.00048828125)">
   <path d="M 285,-33 C 182,-33 111,30 74,156 52,228 41,333 41,471 41,549 55,616 82,672 116,743 169,778 240,778 293,778 328,747 346,684 L 369,508 C 377,444 397,411 428,410 L 1163,1116 C 1174,1127 1196,1133 1229,1133 1271,1133 1292,1118 1292,1087 L 1292,965 C 1292,929 1282,901 1262,881 L 442,47 C 390,-6 338,-33 285,-33 Z"/>
  </g>
  <g id="bullet-char-template-9679" transform="scale(0.00048828125,-0.00048828125)">
   <path d="M 813,0 C 632,0 489,54 383,161 276,268 223,411 223,592 223,773 276,916 383,1023 489,1130 632,1184 813,1184 992,1184 1136,1130 1245,1023 1353,916 1407,772 1407,592 1407,412 1353,268 1245,161 1136,54 992,0 813,0 Z"/>
  </g>
  <g id="bullet-char-template-8226" transform="scale(0.00048828125,-0.00048828125)">
   <path d="M 346,457 C 273,457 209,483 155,535 101,586 74,649 74,723 74,796 101,859 155,911 209,963 273,989 346,989 419,989 480,963 531,910 582,859 608,796 608,723 608,648 583,586 532,535 482,483 420,457 346,457 Z"/>
  </g>
  <g id="bullet-char-template-8211" transform="scale(0.00048828125,-0.00048828125)">
   <path d="M -4,459 L 1135,459 1135,606 -4,606 -4,459 Z"/>
  </g>
  <g id="bullet-char-template-61548" transform="scale(0.00048828125,-0.00048828125)">
   <path d="M 173,740 C 173,903 231,1043 346,1159 462,1274 601,1332 765,1332 928,1332 1067,1274 1183,1159 1299,1043 1357,903 1357,740 1357,577 1299,437 1183,322 1067,206 928,148 765,148 601,148 462,206 346,322 231,437 173,577 173,740 Z"/>
  </g>
 </defs>
 <g class="Page">
  <g class="com.sun.star.drawing.CustomShape">
   <g id="id3">
    <rect class="BoundingBox" stroke="none" fill="none" x="7375" y="11725" width="6251" height="6251"/>
   </g>
  </g>
  <g class="Group">
   <g class="com.sun.star.drawing.CustomShape">
    <g id="id4">
     <rect class="BoundingBox" stroke="none" fill="none" x="8394" y="12732" width="4214" height="4976"/>
     <path fill="none" stroke="rgb(0,0,0)" stroke-width="212" stroke-linejoin="round" d="M 9166,12838 L 9167,12838 C 9050,12838 8935,12869 8833,12927 8732,12986 8648,13070 8589,13171 8531,13273 8500,13388 8500,13505 L 8500,16934 8500,16934 C 8500,17051 8531,17166 8589,17268 8648,17369 8732,17453 8833,17512 8935,17570 9050,17601 9167,17601 L 11834,17601 11834,17601 C 11951,17601 12066,17570 12168,17512 12269,17453 12353,17369 12412,17268 12470,17166 12501,17051 12501,16934 L 12500,13504 12501,13505 12501,13505 C 12501,13388 12470,13273 12412,13171 12353,13070 12269,12986 12168,12927 12066,12869 11951,12838 11834,12838 L 9166,12838 Z "/>
    </g>
   </g>
   <g class="com.sun.star.drawing.CustomShape">
    <g id="id5">
     <rect class="BoundingBox" stroke="none" fill="none" x="9581" y="11993" width="1839" height="965"/>
     <path fill="rgb(0,0,0)" stroke="none" d="M 9812,12100 L 9812,12100 C 9790,12100 9769,12106 9750,12117 9731,12128 9715,12144 9704,12163 9693,12182 9687,12203 9687,12225 L 9687,12725 9687,12726 C 9687,12748 9693,12769 9704,12788 9715,12807 9731,12823 9750,12834 9769,12845 9790,12851 9812,12851 L 11187,12851 11188,12851 C 11210,12851 11231,12845 11250,12834 11269,12823 11285,12807 11296,12788 11307,12769 11313,12748 11313,12726 L 11313,12225 11313,12225 11313,12225 C 11313,12203 11307,12182 11296,12163 11285,12144 11269,12128 11250,12117 11231,12106 11210,12100 11188,12100 L 9812,12100 Z "/>
     <path fill="none" stroke="rgb(0,0,0)" stroke-width="212" stroke-linejoin="round" d="M 9812,12100 L 9812,12100 C 9790,12100 9769,12106 9750,12117 9731,12128 9715,12144 9704,12163 9693,12182 9687,12203 9687,12225 L 9687,12725 9687,12726 C 9687,12748 9693,12769 9704,12788 9715,12807 9731,12823 9750,12834 9769,12845 9790,12851 9812,12851 L 11187,12851 11188,12851 C 11210,12851 11231,12845 11250,12834 11269,12823 11285,12807 11296,12788 11307,12769 11313,12748 11313,12726 L 11313,12225 11313,12225 11313,12225 C 11313,12203 11307,12182 11296,12163 11285,12144 11269,12128 11250,12117 11231,12106 11210,12100 11188,12100 L 9812,12100 Z "/>
    </g>
   </g>
   <g class="com.sun.star.drawing.CustomShape">
    <g id="id6">
     <rect class="BoundingBox" stroke="none" fill="none" x="9144" y="13418" width="2714" height="3539"/>
     <path fill="rgb(204,204,204)" stroke="none" d="M 9666,13524 L 9667,13524 C 9594,13524 9522,13543 9458,13580 9395,13616 9342,13669 9306,13732 9269,13796 9250,13868 9250,13941 L 9250,16433 9250,16433 C 9250,16506 9269,16578 9306,16642 9342,16705 9395,16758 9458,16794 9522,16831 9594,16850 9667,16850 L 11334,16849 11334,16850 C 11407,16850 11479,16831 11543,16794 11606,16758 11659,16705 11695,16642 11732,16578 11751,16506 11751,16433 L 11751,13940 11751,13941 11751,13941 C 11751,13868 11732,13796 11695,13732 11659,13669 11606,13616 11543,13580 11479,13543 11407,13524 11334,13524 L 9666,13524 Z "/>
     <path fill="none" stroke="rgb(0,0,0)" stroke-width="212" stroke-linejoin="round" d="M 9666,13524 L 9667,13524 C 9594,13524 9522,13543 9458,13580 9395,13616 9342,13669 9306,13732 9269,13796 9250,13868 9250,13941 L 9250,16433 9250,16433 C 9250,16506 9269,16578 9306,16642 9342,16705 9395,16758 9458,16794 9522,16831 9594,16850 9667,16850 L 11334,16849 11334,16850 C 11407,16850 11479,16831 11543,16794 11606,16758 11659,16705 11695,16642 11732,16578 11751,16506 11751,16433 L 11751,13940 11751,13941 11751,13941 C 11751,13868 11732,13796 11695,13732 11659,13669 11606,13616 11543,13580 11479,13543 11407,13524 11334,13524 L 9666,13524 Z "/>
    </g>
   </g>
   <g class="com.sun.star.drawing.LineShape">
    <g id="id7">
     <rect class="BoundingBox" stroke="none" fill="none" x="9670" y="14020" width="1661" height="161"/>
     <path fill="none" stroke="rgb(0,0,0)" stroke-width="159" stroke-linejoin="round" d="M 9750,14100 L 11250,14100 "/>
    </g>
   </g>
   <g class="com.sun.star.drawing.LineShape">
    <g id="id8">
     <rect class="BoundingBox" stroke="none" fill="none" x="9670" y="14320" width="1661" height="161"/>
     <path fill="none" stroke="rgb(0,0,0)" stroke-width="159" stroke-linejoin="round" d="M 9750,14400 L 11250,14400 "/>
    </g>
   </g>
   <g class="com.sun.star.drawing.LineShape">
    <g id="id9">
     <rect class="BoundingBox" stroke="none" fill="none" x="9670" y="14620" width="1661" height="161"/>
     <path fill="none" stroke="rgb(0,0,0)" stroke-width="159" stroke-linejoin="round" d="M 9750,14700 L 11250,14700 "/>
    </g>
   </g>
   <g class="com.sun.star.drawing.LineShape">
    <g id="id10">
     <rect class="BoundingBox" stroke="none" fill="none" x="9670" y="14920" width="1661" height="161"/>
     <path fill="none" stroke="rgb(0,0,0)" stroke-width="159" stroke-linejoin="round" d="M 9750,15000 L 11250,15000 "/>
    </g>
   </g>
  </g>
 </g>
</svg>