<?xml version="1.0" encoding="UTF-8"?>
<!DOCTYPE svg PUBLIC "-//W3C//DTD SVG 1.1//EN" "http://www.w3.org/Graphics/SVG/1.1/DTD/svg11.dtd">
<svg version="1.2" width="150.27mm" height="150.27mm" viewBox="0 0 15027 15027" preserveAspectRatio="xMidYMid" fill-rule="evenodd" stroke-width="28.222" stroke-linejoin="round" xmlns="http://www.w3.org/2000/svg" xmlns:ooo="http://xml.openoffice.org/svg/export" xmlns:xlink="http://www.w3.org/1999/xlink" xmlns:presentation="http://sun.com/xmlns/staroffice/presentation" xmlns:smil="http://www.w3.org/2001/SMIL20/" xmlns:anim="urn:oasis:names:tc:opendocument:xmlns:animation:1.0" xmlns:svg="urn:oasis:names:tc:opendocument:xmlns:svg-compatible:1.0" xml:space="preserve">
 <defs class="ClipPathGroup">
  <clipPath id="presentation_clip_path" clipPathUnits="userSpaceOnUse">
   <rect x="0" y="0" width="15027" height="15027"/>
  </clipPath>
  <clipPath id="presentation_clip_path_shrink" clipPathUnits="userSpaceOnUse">
   <rect x="15" y="15" width="14997" height="14997"/>
  </clipPath>
 </defs>
 <defs class="TextShapeIndex">
  <g ooo:slide="id1" ooo:id-list="id3 id4 id5 id6 id7 id8 id9"/>
 </defs>
 <defs class="EmbeddedBulletChars">
  <g id="bullet-char-template-57356" transform="scale(0.00048828125,-0.00048828125)">
   <path d="M 580,1141 L 1163,571 580,0 -4,571 580,1141 Z"/>
  </g>
  <g id="bullet-char-template-57354" transform="scale(0.00048828125,-0.00048828125)">
   <path d="M 8,1128 L 1137,1128 1137,0 8,0 8,1128 Z"/>
  </g>
  <g id="bullet-char-template-10146" transform="scale(0.00048828125,-0.00048828125)">
   <path d="M 174,0 L 602,739 174,1481 1456,739 174,0 Z M 1358,739 L 309,1346 659,739 1358,739 Z"/>
  </g>
  <g id="bullet-char-template-10132" transform="scale(0.00048828125,-0.00048828125)">
   <path d="M 2015,739 L 1276,0 717,0 1260,543 174,543 174,936 1260,936 717,1481 1274,1481 2015,739 Z"/>
  </g>
  <g id="bullet-char-template-10007" transform="scale(0.00048828125,-0.00048828125)">
   <path d="M 0,-2 C -7,14 -16,27 -25,37 L 356,567 C 262,823 215,952 215,954 215,979 228,992 255,992 264,992 276,990 289,987 310,991 331,999 354,1012 L 381,999 492,748 772,1049 836,1024 860,1049 C 881,1039 901,1025 922,1006 886,937 835,863 770,784 769,783 710,716 594,584 L 774,223 C 774,196 753,168 711,139 L 727,119 C 717,90 699,76 672,76 641,76 570,178 457,381 L 164,-76 C 142,-110 111,-127 72,-127 30,-127 9,-110 8,-76 1,-67 -2,-52 -2,-32 -2,-23 -1,-13 0,-2 Z"/>
  </g>
  <g id="bullet-char-template-10004" transform="scale(0.00048828125,-0.00048828125)">
   <path d="M 285,-33 C 182,-33 111,30 74,156 52,228 41,333 41,471 41,549 55,616 82,672 116,743 169,778 240,778 293,778 328,747 346,684 L 369,508 C 377,444 397,411 428,410 L 1163,1116 C 1174,1127 1196,1133 1229,1133 1271,1133 1292,1118 1292,1087 L 1292,965 C 1292,929 1282,901 1262,881 L 442,47 C 390,-6 338,-33 285,-33 Z"/>
  </g>
  <g id="bullet-char-template-9679" transform="scale(0.00048828125,-0.00048828125)">
   <path d="M 813,0 C 632,0 489,54 383,161 276,268 223,411 223,592 223,773 276,916 383,1023 489,1130 632,1184 813,1184 992,1184 1136,1130 1245,1023 1353,916 1407,772 1407,592 1407,412 1353,268 1245,161 1136,54 992,0 813,0 Z"/>
  </g>
  <g id="bullet-char-template-8226" transform="scale(0.00048828125,-0.00048828125)">
   <path d="M 346,457 C 273,457 209,483 155,535 101,586 74,649 74,723 74,796 101,859 155,911 209,963 273,989 346,989 419,989 480,963 531,910 582,859 608,796 608,723 608,648 583,586 532,535 482,483 420,457 346,457 Z"/>
  </g>
  <g id="bullet-char-template-8211" transform="scale(0.00048828125,-0.00048828125)">
   <path d="M -4,459 L 1135,459 1135,606 -4,606 -4,459 Z"/>
  </g>
  <g id="bullet-char-template-61548" transform="scale(0.00048828125,-0.00048828125)">
   <path d="M 173,740 C 173,903 231,1043 346,1159 462,1274 601,1332 765,1332 928,1332 1067,1274 1183,1159 1299,1043 1357,903 1357,740 1357,577 1299,437 1183,322 1067,206 928,148 765,148 601,148 462,206 346,322 231,437 173,577 173,740 Z"/>
  </g>
 </defs>
 <g>
  <g id="id2" class="Master_Slide">
   <g id="bg-id2" class="Background"/>
   <g id="bo-id2" class="BackgroundObjects"/>
  </g>
 </g>
 <g class="SlideGroup">
  <g>
   <g id="container-id1">
    <g id="id1" class="Slide" clip-path="url(#presentation_clip_path)">
     <g class="Page">
      <g class="Group">
       <g class="Group">
        <g class="com.sun.star.drawing.ClosedBezierShape">
         <g id="id3">
          <rect class="BoundingBox" stroke="none" fill="none" x="6190" y="10780" width="2449" height="2453"/>
          <path fill="rgb(178,178,178)" stroke="none" d="M 8637,12006 C 8637,12221 8581,12432 8473,12618 8366,12805 8211,12960 8025,13067 7839,13175 7629,13231 7416,13231 7200,13231 6989,13175 6803,13067 6617,12960 6462,12805 6355,12618 6247,12432 6191,12221 6191,12006 6191,11791 6247,11580 6355,11394 6462,11207 6617,11053 6803,10945 6989,10838 7200,10781 7416,10781 7628,10781 7839,10838 8025,10945 8211,11053 8366,11207 8473,11394 8581,11580 8637,11791 8637,12006 Z "/>
          <path fill="none" stroke="rgb(255,222,89)" d="M 8637,12006 C 8637,12221 8581,12432 8473,12618 8366,12805 8211,12960 8025,13067 7839,13175 7629,13231 7416,13231 7200,13231 6989,13175 6803,13067 6617,12960 6462,12805 6355,12618 6247,12432 6191,12221 6191,12006 6191,11791 6247,11580 6355,11394 6462,11207 6617,11053 6803,10945 6989,10838 7200,10781 7416,10781 7628,10781 7839,10838 8025,10945 8211,11053 8366,11207 8473,11394 8581,11580 8637,11791 8637,12006 Z "/>
         </g>
        </g>
        <g class="com.sun.star.drawing.ClosedBezierShape">
         <g id="id4">
          <rect class="BoundingBox" stroke="none" fill="none" x="6706" y="1793" width="1433" height="1192"/>
          <path fill="rgb(178,178,178)" stroke="none" d="M 8137,2389 C 8137,2493 8104,2596 8042,2686 7979,2776 7888,2851 7779,2904 7671,2956 7547,2983 7423,2983 7298,2983 7173,2956 7065,2904 6956,2851 6865,2776 6802,2686 6740,2596 6707,2493 6707,2389 6707,2284 6740,2182 6802,2091 6865,2001 6956,1926 7065,1874 7173,1822 7297,1794 7423,1794 7548,1794 7671,1822 7779,1874 7888,1926 7979,2001 8042,2091 8104,2182 8137,2284 8137,2389 Z "/>
          <path fill="none" stroke="rgb(255,222,89)" d="M 8137,2389 C 8137,2493 8104,2596 8042,2686 7979,2776 7888,2851 7779,2904 7671,2956 7547,2983 7423,2983 7298,2983 7173,2956 7065,2904 6956,2851 6865,2776 6802,2686 6740,2596 6707,2493 6707,2389 6707,2284 6740,2182 6802,2091 6865,2001 6956,1926 7065,1874 7173,1822 7297,1794 7423,1794 7548,1794 7671,1822 7779,1874 7888,1926 7979,2001 8042,2091 8104,2182 8137,2284 8137,2389 Z "/>
         </g>
        </g>
        <g class="com.sun.star.drawing.ClosedBezierShape">
         <g id="id5">
          <rect class="BoundingBox" stroke="none" fill="none" x="2121" y="2465" width="10785" height="9535"/>
          <path fill="rgb(178,178,178)" stroke="none" d="M 12887,11616 L 12887,10885 C 12887,10885 11095,9788 11095,7233 11095,3031 8408,2483 7513,2483 6619,2483 3931,3031 3931,7233 3931,9788 2139,10885 2139,10885 L 2139,11616 2139,11616 C 2139,11679 2156,11743 2187,11799 2219,11854 2263,11900 2318,11932 2373,11964 2435,11981 2498,11981 L 12528,11981 12528,11981 C 12591,11981 12653,11964 12708,11932 12763,11900 12807,11854 12839,11799 12870,11743 12887,11679 12887,11616 Z "/>
          <path fill="none" stroke="rgb(255,222,89)" stroke-width="35" stroke-linejoin="miter" d="M 12887,11616 L 12887,10885 C 12887,10885 11095,9788 11095,7233 11095,3031 8408,2483 7513,2483 6619,2483 3931,3031 3931,7233 3931,9788 2139,10885 2139,10885 L 2139,11616 2139,11616 C 2139,11679 2156,11743 2187,11799 2219,11854 2263,11900 2318,11932 2373,11964 2435,11981 2498,11981 L 12528,11981 12528,11981 C 12591,11981 12653,11964 12708,11932 12763,11900 12807,11854 12839,11799 12870,11743 12887,11679 12887,11616 Z "/>
         </g>
        </g>
        <g class="com.sun.star.drawing.ClosedBezierShape">
         <g id="id6">
          <rect class="BoundingBox" stroke="none" fill="none" x="1388" y="10955" width="12249" height="1228"/>
          <path fill="rgb(153,153,153)" stroke="none" d="M 1389,10956 L 13635,10956 13635,11773 13635,11773 C 13635,11844 13616,11915 13580,11977 13544,12039 13494,12090 13431,12126 13369,12162 13298,12181 13226,12181 L 1798,12181 1798,12181 C 1726,12181 1655,12162 1593,12126 1530,12090 1480,12039 1444,11977 1408,11915 1389,11844 1389,11773 L 1389,10956 Z "/>
          <path fill="none" stroke="rgb(255,222,89)" d="M 1389,10956 L 13635,10956 13635,11773 13635,11773 C 13635,11844 13616,11915 13580,11977 13544,12039 13494,12090 13431,12126 13369,12162 13298,12181 13226,12181 L 1798,12181 1798,12181 C 1726,12181 1655,12162 1593,12126 1530,12090 1480,12039 1444,11977 1408,11915 1389,11844 1389,11773 L 1389,10956 Z "/>
         </g>
        </g>
        <g class="com.sun.star.drawing.ClosedBezierShape">
         <g id="id7">
          <rect class="BoundingBox" stroke="none" fill="none" x="8949" y="2963" width="1840" height="2589"/>
          <path fill="rgb(153,153,153)" stroke="none" d="M 10481,5524 C 10450,5506 10424,5480 10406,5449 10397,5433 10389,5415 10385,5397 10146,4459 9694,3766 9042,3339 9015,3321 8993,3298 8977,3270 8959,3239 8949,3204 8949,3168 8949,3132 8959,3097 8977,3066 8995,3035 9021,3009 9052,2991 9084,2973 9119,2964 9154,2964 9190,2964 9225,2973 9256,2991 9259,2993 9262,2995 9266,2997 10006,3483 10516,4256 10781,5296 10785,5313 10787,5330 10787,5347 10787,5383 10778,5418 10760,5449 10743,5480 10716,5506 10685,5524 10654,5541 10619,5551 10583,5551 L 10583,5551 C 10547,5551 10512,5541 10481,5524 Z "/>
         </g>
        </g>
        <g class="com.sun.star.drawing.PolyPolygonShape">
         <g id="id8">
          <rect class="BoundingBox" stroke="none" fill="none" x="10583" y="5938" width="410" height="410"/>
          <path fill="rgb(153,153,153)" stroke="none" d="M 10583,5939 L 10991,5939 10991,6347 10583,6347 10583,5939 Z "/>
         </g>
        </g>
        <g class="com.sun.star.drawing.CustomShape">
         <g id="id9">
          <rect class="BoundingBox" stroke="none" fill="none" x="4006" y="2377" width="8068" height="10733"/>
          <path fill="rgb(178,178,178)" stroke="none" d="M 11598,2419 L 11598,2419 C 11580,2406 11559,2398 11538,2396 11516,2394 11494,2397 11474,2406 11454,2415 11436,2429 11423,2447 L 4048,12598 4048,12598 C 4035,12616 4027,12637 4025,12659 4022,12681 4026,12703 4035,12723 4044,12743 4058,12760 4076,12773 L 4480,13067 4481,13067 C 4498,13080 4519,13088 4541,13091 4563,13093 4585,13089 4605,13080 4625,13071 4643,13057 4656,13040 L 12031,2888 12031,2888 12031,2888 C 12044,2871 12052,2850 12054,2828 12056,2806 12053,2784 12044,2764 12035,2744 12021,2726 12003,2714 L 11598,2419 Z "/>
          <path fill="none" stroke="rgb(255,222,89)" stroke-width="35" stroke-linejoin="round" d="M 11598,2419 L 11598,2419 C 11580,2406 11559,2398 11538,2396 11516,2394 11494,2397 11474,2406 11454,2415 11436,2429 11423,2447 L 4048,12598 4048,12598 C 4035,12616 4027,12637 4025,12659 4022,12681 4026,12703 4035,12723 4044,12743 4058,12760 4076,12773 L 4480,13067 4481,13067 C 4498,13080 4519,13088 4541,13091 4563,13093 4585,13089 4605,13080 4625,13071 4643,13057 4656,13040 L 12031,2888 12031,2888 12031,2888 C 12044,2871 12052,2850 12054,2828 12056,2806 12053,2784 12044,2764 12035,2744 12021,2726 12003,2714 L 11598,2419 Z "/>
         </g>
        </g>
       </g>
      </g>
     </g>
    </g>
   </g>
  </g>
 </g>
</svg>